<svg width="24" height="24" viewBox="0 0 24 24" fill="none" xmlns="http://www.w3.org/2000/svg">
<path d="M24 18.0655V19.5709H16.4297L18.9023 22.0526L17.8477 23.1111L13.5703 18.8182L17.8477 14.5253L18.9023 15.5838L16.4297 18.0655H24ZM15.1406 12.9728L14.1094 14.0666C13.4141 13.408 12.6289 12.9062 11.7539 12.5612C10.8789 12.2162 9.96094 12.0437 9 12.0437C8.3125 12.0437 7.64844 12.1338 7.00781 12.3142C6.36719 12.4945 5.76953 12.7454 5.21484 13.0669C4.66016 13.3884 4.15625 13.7804 3.70312 14.243C3.25 14.7056 2.85938 15.2153 2.53125 15.772C2.20312 16.3287 1.94922 16.9285 1.76953 17.5715C1.58984 18.2145 1.5 18.8809 1.5 19.5709H0C0 18.6535 0.136719 17.7558 0.410156 16.8776C0.683594 15.9994 1.07812 15.1879 1.59375 14.443C2.10938 13.6981 2.72266 13.0355 3.43359 12.4553C4.14453 11.8751 4.9375 11.4321 5.8125 11.1263C5.375 10.844 4.98438 10.5186 4.64062 10.1501C4.29688 9.78155 4 9.37774 3.75 8.93865C3.5 8.49956 3.31641 8.03694 3.19922 7.55081C3.08203 7.06467 3.01562 6.55501 3 6.02183C3 5.19069 3.15625 4.41052 3.46875 3.68131C3.78125 2.95211 4.20703 2.31307 4.74609 1.76421C5.28516 1.21534 5.92188 0.784092 6.65625 0.470455C7.39062 0.156818 8.17188 0 9 0C9.82812 0 10.6055 0.156818 11.332 0.470455C12.0586 0.784092 12.6953 1.21142 13.2422 1.75245C13.7891 2.29347 14.2188 2.9325 14.5312 3.66955C14.8438 4.4066 15 5.19069 15 6.02183C15 7.09603 14.7539 8.06831 14.2617 8.93865C13.7695 9.80899 13.0781 10.5382 12.1875 11.1263C12.7344 11.3301 13.2539 11.5889 13.7461 11.9025C14.2383 12.2162 14.7031 12.5729 15.1406 12.9728ZM4.5 6.02183C4.5 6.6491 4.61719 7.23325 4.85156 7.77427C5.08594 8.3153 5.40625 8.79359 5.8125 9.20916C6.21875 9.62473 6.69531 9.95013 7.24219 10.1854C7.78906 10.4206 8.375 10.5382 9 10.5382C9.61719 10.5382 10.1992 10.4206 10.7461 10.1854C11.293 9.95013 11.7695 9.62865 12.1758 9.22092C12.582 8.81319 12.9062 8.3349 13.1484 7.78603C13.3906 7.23717 13.5078 6.6491 13.5 6.02183C13.5 5.40239 13.3828 4.81824 13.1484 4.26938C12.9141 3.72052 12.5938 3.24222 12.1875 2.83449C11.7812 2.42676 11.3008 2.10137 10.7461 1.8583C10.1914 1.61523 9.60938 1.49762 9 1.50546C8.375 1.50546 7.79297 1.62307 7.25391 1.8583C6.71484 2.09353 6.23828 2.415 5.82422 2.82273C5.41016 3.23046 5.08594 3.71268 4.85156 4.26938C4.61719 4.82609 4.5 5.41023 4.5 6.02183Z" fill="#2E3192"/>
</svg>
